<?xml version="1.0" standalone="no"?>
<!DOCTYPE svg PUBLIC "-//W3C//DTD SVG 20010904//EN"
 "http://www.w3.org/TR/2001/REC-SVG-20010904/DTD/svg10.dtd">
<svg version="1.0" xmlns="http://www.w3.org/2000/svg"
 width="800.000000pt" height="750.000000pt" viewBox="0 0 800.000000 750.000000"
 preserveAspectRatio="xMidYMid meet">

<g transform="translate(0.000000,750.000000) scale(0.100000,-0.100000)"
fill="#000000" stroke="none">
<path d="M3850 6669 c-625 -30 -1241 -264 -1722 -652 -56 -45 -110 -89 -121
-98 -21 -17 -18 -49 5 -49 8 0 52 32 98 70 703 583 1640 813 2523 620 119 -26
129 -26 125 3 -3 20 -15 25 -133 49 -237 49 -520 70 -775 57z"/>
<path d="M5639 6174 c-16 -19 -29 -7 171 -155 168 -125 443 -399 571 -571 294
-395 478 -817 559 -1285 22 -129 48 -399 38 -408 -3 -4 -111 74 -239 171 -129
98 -316 240 -416 316 -100 76 -193 142 -208 148 -40 15 -97 12 -135 -8 -19
-10 -136 -95 -259 -190 -123 -95 -227 -172 -232 -172 -4 0 -65 53 -135 118
-270 249 -364 332 -388 338 -31 7 -57 -7 -125 -68 -30 -26 -60 -48 -65 -47 -6
0 -193 205 -416 455 -425 477 -427 479 -489 459 -19 -6 -258 -263 -392 -422
-24 -28 -47 -52 -51 -52 -5 -1 -25 14 -45 33 -21 18 -48 38 -60 45 -28 14 -82
14 -109 -2 -12 -7 -168 -145 -345 -307 -178 -163 -393 -358 -476 -434 l-153
-137 -71 55 c-75 59 -114 70 -162 44 -17 -8 -255 -188 -464 -350 -9 -7 -30 4
-70 35 -113 89 -129 87 -305 -49 l-123 -95 -3 78 c-9 219 52 587 144 866 36
109 36 138 0 124 -17 -7 -70 -167 -110 -331 -107 -433 -113 -904 -20 -1351 84
-395 260 -791 502 -1128 142 -197 396 -462 582 -606 872 -677 2009 -835 3022
-420 955 391 1659 1270 1827 2284 61 364 54 747 -20 1115 -90 449 -304 906
-595 1270 -148 185 -405 429 -591 562 -130 92 -128 91 -144 72z m-1307 -1395
c222 -249 403 -455 403 -459 0 -12 -252 -240 -265 -240 -6 0 -64 32 -127 70
-134 81 -152 87 -207 71 -23 -6 -46 -13 -52 -14 -15 -3 -615 546 -612 560 3 9
342 396 395 448 39 39 46 32 465 -436z m-1022 54 c14 -10 182 -161 373 -336
285 -261 346 -322 335 -332 -7 -7 -110 -70 -228 -140 l-215 -127 -33 18 c-31
16 -33 21 -26 49 4 16 8 55 8 85 1 42 -2 55 -14 55 -10 0 -18 -19 -26 -63 -6
-34 -14 -65 -17 -69 -4 -3 -48 22 -100 55 -51 33 -106 64 -120 67 -15 4 -30
12 -34 18 -3 6 -8 81 -10 166 -2 86 -7 188 -11 226 l-7 70 -45 0 -45 0 -5 -49
-5 -48 -61 -19 c-34 -11 -67 -26 -74 -34 -15 -18 -3 -38 19 -32 9 3 38 13 64
21 l48 15 -2 -133 c-1 -74 2 -139 6 -145 9 -16 -20 -48 -50 -55 -33 -8 -326
-197 -333 -214 -6 -17 24 -82 39 -82 6 0 64 27 130 61 66 34 122 59 125 57 9
-10 -104 -363 -120 -373 -12 -7 -24 -6 -44 6 -43 25 -542 410 -542 418 0 11
908 840 945 862 37 23 44 23 75 2z m-157 -415 c11 -189 9 -258 -7 -258 -8 0
-18 5 -21 10 -9 14 6 360 15 360 4 0 10 -51 13 -112z m2056 -213 c187 -170
238 -222 229 -230 -22 -20 -312 -241 -334 -255 -19 -11 -47 3 -303 155 -155
92 -280 171 -279 175 2 4 95 91 208 194 125 114 211 186 222 184 9 -2 125
-102 257 -223z m935 113 c25 -18 223 -168 441 -333 l395 -300 0 -101 c0 -153
-25 -368 -62 -541 l-11 -53 -205 0 -204 0 16 23 c9 12 32 55 51 95 19 40 42
75 50 78 19 8 85 97 85 115 0 8 -19 67 -41 132 l-42 117 -78 0 -78 0 -31 99
c-17 55 -37 104 -44 110 -9 8 -79 11 -212 9 l-199 -3 -14 -32 -15 -33 -148 0
c-92 0 -148 4 -148 10 0 6 -28 10 -65 10 l-66 0 3 -82 3 -83 54 -3 c38 -2 58
1 71 13 14 13 39 15 136 13 73 -2 118 -7 116 -13 -1 -5 -13 -13 -26 -16 -13
-4 -57 -30 -99 -58 -52 -35 -86 -51 -108 -51 -19 0 -92 -28 -176 -67 -157 -74
-158 -75 -123 -143 15 -30 27 -40 44 -40 20 0 30 -13 62 -80 20 -44 46 -88 57
-97 18 -17 -23 -18 -984 -23 -946 -5 -1004 -6 -1007 -22 -3 -17 82 -18 1672
-18 l1676 0 -1 -22 c0 -13 -5 -39 -12 -58 l-12 -35 -1400 -5 c-1236 -4 -1400
-7 -1400 -20 0 -13 163 -15 1394 -18 l1393 -2 -7 -28 c-3 -15 -14 -45 -25 -67
-10 -22 -21 -53 -25 -70 -3 -16 -17 -52 -31 -81 -13 -28 -24 -54 -24 -58 0
-12 -93 -202 -138 -281 -83 -145 -203 -320 -275 -402 -24 -26 -53 -61 -66 -78
-26 -35 -172 -187 -216 -226 -30 -27 -31 -27 -85 -13 -67 18 -112 13 -222 -26
-102 -36 -137 -37 -222 -5 -140 53 -194 53 -326 -1 -77 -31 -121 -30 -217 5
-125 45 -134 46 -277 14 l-29 -6 6 61 c5 46 3 63 -8 72 -8 6 -19 9 -25 5 -6
-4 -10 9 -10 34 0 36 3 40 28 43 19 2 28 9 30 26 3 22 1 23 -50 20 l-53 -3 -3
-62 c-3 -59 -5 -63 -27 -63 -40 0 -55 -11 -55 -40 0 -15 -3 -42 -6 -60 -7 -32
-7 -32 -58 -26 -186 20 -207 19 -294 -13 -103 -38 -142 -39 -234 -2 -40 15
-91 31 -113 34 -45 7 -130 -10 -217 -42 -77 -28 -112 -27 -210 10 -110 42
-173 42 -290 0 -49 -17 -103 -31 -121 -31 -19 0 -74 14 -123 31 -117 41 -184
42 -279 3 -94 -39 -165 -39 -260 0 -80 32 -150 37 -233 16 l-53 -14 -100 100
c-210 207 -403 469 -532 719 -63 123 -128 263 -125 272 2 5 -7 28 -19 53 -13
25 -25 60 -29 78 l-6 32 748 2 c658 3 749 5 749 18 0 13 -93 16 -759 20 l-759
5 -13 35 c-7 19 -13 43 -13 52 -1 17 49 18 877 20 772 3 877 5 877 18 0 13
-28 16 -175 20 l-175 5 35 21 c19 12 332 197 695 410 l660 389 70 0 70 0 273
-160 274 -160 -297 -3 c-259 -2 -296 -4 -302 -18 -3 -9 0 -20 8 -25 18 -11
1100 -11 1118 0 8 5 11 16 8 25 -5 13 -34 16 -194 18 l-187 3 572 440 c315
242 591 452 614 468 59 38 112 37 172 -5z m-1521 -391 c229 -137 417 -253 417
-256 -1 -11 -321 -246 -332 -243 -5 1 -144 81 -309 176 -190 110 -315 177
-340 181 -80 14 -118 -1 -332 -126 l-206 -120 -68 3 -67 3 -24 78 c-13 43 -22
80 -20 81 40 30 168 99 181 98 11 0 29 10 40 23 12 14 137 93 277 177 314 186
319 190 345 182 11 -4 208 -119 438 -257z m-1463 167 c11 -12 11 -18 -2 -30
-14 -14 -17 -14 -32 1 -13 13 -14 20 -5 31 15 18 24 18 39 -2z m-983 -106
c346 -262 563 -432 563 -439 0 -5 -74 -9 -165 -9 -158 0 -165 -1 -165 -20 0
-20 7 -20 517 -20 317 0 513 -4 508 -9 -10 -10 -125 -78 -663 -392 l-322 -189
-303 2 -302 3 -3 47 -3 48 198 2 198 3 3 50 c1 28 -19 174 -46 325 l-48 275
-266 3 c-251 2 -266 3 -283 22 -11 13 -15 24 -9 29 19 18 383 300 420 325 21
14 44 26 51 26 7 0 61 -37 120 -82z m894 38 c-16 -19 -301 -168 -314 -163 -9
3 265 180 293 190 22 7 35 -10 21 -27z m318 -70 c79 -49 139 -92 134 -93 -12
-4 -298 143 -313 162 -15 18 -4 36 18 28 9 -3 82 -47 161 -97z m-203 26 c22
-20 36 -47 52 -102 12 -41 22 -78 22 -82 0 -5 -13 -8 -28 -8 -54 0 -61 -14
-64 -135 l-3 -110 -30 0 -30 0 -5 120 -5 120 -41 5 -41 5 23 78 c24 82 64 136
99 136 11 0 34 -12 51 -27z m187 -101 c64 -35 84 -51 75 -58 -25 -19 -107 -63
-117 -63 -6 0 -15 17 -21 38 -5 20 -16 58 -24 85 -8 26 -12 47 -8 47 4 -1 47
-22 95 -49z m-1921 -143 l83 -63 -68 -3 c-41 -2 -70 -8 -72 -15 -16 -43 -95
-549 -93 -591 l3 -51 193 -3 193 -2 -3 -48 -3 -47 -277 -3 -276 -2 -17 71
c-37 163 -75 445 -75 554 0 41 2 44 73 98 39 30 105 80 145 111 41 31 82 56
92 56 10 0 56 -28 102 -62z m1606 -95 l-3 -98 -49 -3 c-27 -2 -53 1 -57 5 -7
7 32 160 48 186 2 4 18 7 34 7 l30 0 -3 -97z m250 5 c16 -51 26 -97 22 -101
-4 -5 -29 -7 -56 -5 l-49 3 -3 98 -3 97 30 0 c29 0 31 -3 59 -92z m3079 -8
c12 -41 23 -78 23 -82 0 -5 -101 -8 -224 -8 -124 0 -227 3 -229 8 -2 4 7 42
20 85 l24 77 181 -2 181 -3 24 -75z m-779 -2 c-2 -35 -7 -43 -23 -43 -16 0
-21 8 -23 43 -3 39 -2 42 23 42 25 0 26 -3 23 -42z m317 2 c0 -12 -23 -15
-132 -18 -128 -2 -133 -2 -133 18 0 20 5 20 133 18 109 -3 132 -6 132 -18z
m-4415 -44 c0 -24 -3 -58 -6 -75 -6 -30 -9 -31 -55 -31 -56 0 -56 1 -38 93
l12 57 43 0 44 0 0 -44z m160 -31 l0 -75 -71 0 -72 0 7 46 c3 26 6 60 6 75 0
29 0 29 65 29 l65 0 0 -75z m160 0 l0 -75 -65 0 -65 0 0 68 c0 38 3 72 7 75 3
4 33 7 65 7 l58 0 0 -75z m168 -2 l3 -73 -66 0 -65 0 0 75 0 76 63 -3 62 -3 3
-72z m122 47 c4 -14 10 -47 14 -73 l7 -47 -55 0 -56 0 0 76 0 75 42 -3 c35 -3
43 -7 48 -28z m4477 -135 l11 -35 -411 0 c-230 0 -407 4 -401 9 5 4 27 20 49
35 l40 26 351 0 351 0 10 -35z m-5099 -87 l-3 -63 -64 -3 -63 -3 6 48 c12 84
11 83 72 83 l55 0 -3 -62z m170 0 l-3 -63 -67 -3 -68 -3 0 66 0 65 70 0 71 0
-3 -62z m162 -3 l0 -66 -62 3 -63 3 -3 63 -3 62 66 0 65 0 0 -65z m178 3 l-3
-63 -67 -3 -68 -3 0 66 0 65 70 0 71 0 -3 -62z m147 30 c3 -18 7 -46 8 -63 l2
-30 -60 0 -60 0 -3 63 -3 62 55 0 c54 0 55 0 61 -32z m4484 -59 c16 -45 14
-58 -11 -96 l-23 -33 -592 0 c-590 0 -592 0 -603 21 -7 11 -9 24 -5 27 3 4 54
30 113 58 l107 52 502 1 501 1 11 -31z m-5149 -144 l0 -75 -76 0 -77 0 7 53
c13 101 10 97 82 97 l64 0 0 -75z m180 0 l0 -75 -75 0 -75 0 0 75 0 75 75 0
75 0 0 -75z m160 0 l0 -75 -65 0 -65 0 0 75 0 75 65 0 65 0 0 -75z m184 38 c3
-21 6 -55 6 -75 l0 -38 -75 0 -75 0 0 75 0 75 69 0 68 0 7 -37z m175 -26 c6
-35 11 -69 11 -75 0 -8 -24 -12 -75 -12 l-75 0 0 38 c0 20 -3 54 -6 75 l-7 37
71 0 70 0 11 -63z m3382 -77 c13 -82 58 -115 153 -111 41 2 92 56 101 109 6
38 9 42 36 42 25 0 29 -4 29 -27 0 -34 31 -87 63 -108 13 -8 40 -16 60 -17 73
-3 125 39 137 112 5 31 9 35 35 35 26 0 30 -4 35 -35 14 -82 59 -115 153 -111
42 2 95 58 103 110 6 39 8 41 40 41 19 0 34 -2 34 -5 0 -3 -13 -34 -28 -68
-32 -70 -76 -113 -125 -122 -18 -3 -198 -5 -402 -3 -370 3 -370 3 -403 26 -33
24 -107 154 -94 166 3 4 20 6 37 4 26 -3 31 -8 36 -38z m209 10 c0 -43 -39
-80 -84 -80 -26 0 -40 7 -60 31 -25 30 -33 59 -19 72 3 4 42 7 85 7 l78 0 0
-30z m328 2 c5 -33 -48 -82 -88 -82 -41 0 -80 39 -80 80 l0 31 83 -3 c76 -3
82 -5 85 -26z m322 -2 c0 -41 -39 -80 -80 -80 -51 0 -112 75 -83 103 3 4 42 7
85 7 l78 0 0 -30z m-4222 -82 l3 -28 -440 0 -441 0 0 23 c0 13 3 27 7 30 3 4
200 6 437 5 l431 -3 3 -27z m-403 -113 l0 -50 -40 0 -40 0 -3 44 c-4 50 8 63
53 59 29 -3 30 -5 30 -53z m2823 -1452 l3 -43 -45 0 c-50 0 -56 11 -36 65 8
22 15 26 42 23 31 -3 33 -6 36 -45z m-2337 -89 c86 -38 167 -37 264 1 98 39
164 38 281 -3 50 -18 105 -32 121 -32 16 0 74 16 129 35 54 19 114 35 132 35
19 0 75 -14 125 -32 120 -42 173 -42 297 1 109 38 147 38 249 -4 103 -42 140
-42 263 -1 97 33 168 45 168 30 0 -3 -9 -17 -20 -31 -11 -14 -20 -34 -20 -44
0 -17 -9 -19 -92 -19 -53 -1 -106 -6 -123 -14 -27 -12 -33 -11 -59 11 -41 34
-87 29 -100 -12 -6 -16 -11 -31 -12 -33 0 -1 -17 5 -37 13 -59 24 -150 19
-247 -15 -106 -38 -148 -38 -250 0 -107 39 -168 39 -280 0 -106 -38 -148 -38
-250 0 -56 21 -100 30 -140 30 -41 0 -85 -9 -142 -30 -103 -38 -140 -38 -258
0 -52 16 -107 32 -121 35 -14 2 -47 24 -74 47 l-48 43 39 12 c55 18 130 9 205
-23z m2667 0 c122 -41 162 -41 266 2 100 41 136 41 259 0 59 -20 121 -36 137
-36 16 0 77 16 134 35 58 19 116 35 129 35 43 0 87 -12 86 -24 0 -16 -100 -96
-120 -96 -10 0 -54 -13 -99 -30 -103 -38 -145 -38 -256 1 -76 27 -99 30 -159
26 -40 -2 -91 -14 -119 -26 l-49 -22 -20 22 c-34 37 -80 49 -182 49 -87 0 -95
2 -95 19 0 11 -12 33 -26 50 -34 41 -21 40 114 -5z m-160 -20 c12 -8 22 -22
22 -30 0 -12 -38 -14 -245 -14 -207 0 -245 2 -245 14 0 8 10 22 22 30 19 13
58 16 223 16 165 0 204 -3 223 -16z m-819 -88 c10 -12 8 -17 -8 -26 -19 -9
-21 -8 -21 15 0 28 12 32 29 11z m1111 -21 c17 -9 30 -17 30 -19 0 -3 3 -11 6
-20 6 -14 -29 -16 -341 -16 l-346 0 3 -22 3 -23 343 -3 c198 -1 342 -6 342
-11 0 -5 -12 -19 -26 -30 -26 -21 -36 -21 -522 -21 l-496 0 -69 42 c-78 47
-78 45 17 102 l60 36 483 0 c414 0 488 -2 513 -15z m-2270 -25 c108 -39 162
-39 273 0 48 17 107 30 131 30 25 0 81 -13 126 -30 108 -40 170 -40 278 0 82
30 130 36 191 24 22 -5 28 -10 22 -18 -5 -6 -11 -28 -13 -49 l-3 -38 -75 -3
c-55 -2 -92 -10 -140 -30 -88 -38 -150 -37 -258 3 -105 39 -150 39 -265 -1
-113 -39 -168 -40 -257 -3 -100 42 -167 44 -269 6 -47 -17 -90 -31 -96 -31
-15 0 -227 141 -221 147 3 3 32 -4 65 -16 85 -29 158 -27 251 9 98 38 152 38
260 0z m2677 -4 c72 -30 157 -34 222 -11 22 8 41 12 41 10 0 -5 -116 -88 -160
-114 l-35 -20 -85 29 c-103 36 -154 37 -243 6 l-68 -24 7 21 c4 12 8 36 8 54
2 40 1 39 67 63 71 27 161 21 246 -14z m-1597 -12 c0 -17 -22 -14 -28 4 -2 7
3 12 12 12 9 0 16 -7 16 -16z m0 -80 c0 -17 -22 -14 -28 4 -2 7 3 12 12 12 9
0 16 -7 16 -16z m-1084 -59 c57 -19 120 -35 139 -35 19 0 83 16 142 36 121 41
154 40 258 -3 97 -40 155 -41 255 -3 53 20 105 33 140 34 69 1 143 -26 158
-58 17 -38 48 -42 92 -11 31 22 42 25 59 16 13 -8 187 -11 541 -11 l521 0 107
36 c78 26 117 34 143 30 47 -7 139 -37 139 -45 0 -13 -122 -72 -138 -67 -21 7
-118 -15 -194 -43 -77 -28 -112 -27 -210 10 -112 42 -166 42 -292 0 -114 -39
-152 -38 -256 5 -91 37 -168 36 -278 -5 -103 -38 -140 -39 -239 -2 -133 49
-174 48 -325 -8 -77 -28 -112 -27 -210 10 -112 42 -173 42 -296 -1 -109 -38
-148 -37 -252 5 -44 19 -86 28 -135 29 -55 2 -80 8 -117 30 -27 15 -48 30 -48
32 0 11 129 52 168 53 13 1 70 -15 128 -34z m1158 29 c21 -8 20 -17 -4 -32
-18 -11 -20 -10 -20 13 0 27 1 28 24 19z m-624 -184 c107 -39 175 -40 267 -2
52 20 85 27 138 27 53 0 86 -7 138 -27 92 -38 160 -37 267 2 104 38 156 38
260 0 108 -40 170 -40 270 0 99 39 155 39 260 0 91 -34 169 -39 235 -15 69 25
49 8 -32 -25 -164 -68 -179 -72 -241 -54 -72 21 -157 14 -239 -20 -83 -35
-141 -34 -243 4 -107 39 -168 39 -280 0 -106 -38 -160 -38 -247 -2 -55 22 -84
27 -148 27 -64 0 -93 -5 -148 -27 -88 -37 -144 -36 -247 2 -93 34 -143 37
-239 14 l-66 -16 -95 35 c-120 45 -230 96 -209 97 9 0 47 -11 83 -25 90 -34
159 -32 256 5 100 38 157 38 260 0z m17 -160 c50 -16 107 -30 126 -30 19 0 83
16 143 36 122 40 145 40 247 -2 98 -41 156 -42 262 -6 141 48 149 49 267 8 57
-20 120 -36 140 -36 21 0 86 16 147 36 86 29 117 35 147 29 49 -9 37 -15 -92
-49 -475 -124 -1003 -123 -1489 1 -118 30 -128 35 -95 45 39 11 98 2 197 -32z"/>
<path d="M2841 4333 c-22 -25 -50 -70 -62 -102 -26 -69 -36 -155 -20 -165 21
-13 38 13 44 68 6 57 40 134 81 184 30 34 32 47 11 55 -9 4 -29 -11 -54 -40z"/>
<path d="M3365 4370 c-3 -6 12 -31 34 -58 22 -26 49 -68 60 -94 19 -45 42 -61
56 -38 9 15 -48 129 -83 168 -31 32 -56 40 -67 22z"/>
<path d="M5092 3990 c-29 -27 -28 -71 1 -98 30 -29 62 -28 92 3 30 30 31 54 4
89 -25 32 -66 34 -97 6z m63 -50 c0 -22 -29 -18 -33 3 -3 14 1 18 15 15 10 -2
18 -10 18 -18z"/>
<path d="M6760 3203 c-25 -32 -20 -69 12 -95 27 -23 49 -23 82 3 50 39 22 119
-43 119 -20 0 -36 -9 -51 -27z m70 -37 c0 -8 -5 -18 -11 -22 -14 -8 -33 11
-25 25 10 16 36 13 36 -3z"/>
<path d="M3629 3172 c-47 -39 -16 -122 47 -122 33 0 64 34 64 70 0 60 -64 90
-111 52z m61 -52 c0 -11 -6 -20 -14 -20 -18 0 -29 16 -21 30 11 18 35 11 35
-10z"/>
<path d="M3267 2934 c-4 -4 -7 -15 -7 -25 0 -11 -9 -19 -22 -21 -33 -4 -35
-36 -4 -48 32 -12 34 -30 4 -30 -55 -1 -64 -46 -11 -52 20 -2 28 -9 28 -23 0
-17 -8 -21 -45 -23 -65 -5 -70 -12 -70 -108 l0 -83 -42 -3 -43 -3 -3 -140 c-2
-131 -4 -141 -25 -157 -30 -24 -35 -23 -51 15 -7 17 -26 43 -41 57 -23 22 -36
25 -95 25 -50 0 -73 -4 -87 -17 -18 -17 -22 -17 -70 4 -85 35 -117 4 -35 -34
26 -13 49 -23 50 -25 11 -6 -12 -43 -27 -43 -30 0 -42 -22 -27 -51 7 -13 31
-61 55 -106 33 -63 49 -84 72 -92 34 -12 35 -11 9 39 -11 22 -20 42 -20 45 0
3 223 5 495 5 523 0 514 1 480 -44 -22 -29 -18 -38 11 -34 23 3 38 24 111 163
90 169 94 187 39 193 -44 5 -34 40 19 63 31 14 45 26 45 39 0 25 -16 25 -75 0
-46 -20 -46 -20 -83 0 -77 42 -165 15 -207 -63 -17 -31 -25 -37 -52 -37 l-33
0 0 84 c0 109 -3 116 -51 116 l-39 0 0 76 c0 101 -8 114 -70 114 -47 0 -50 2
-50 25 0 21 5 25 29 25 17 0 33 5 36 10 10 16 -15 40 -41 40 -31 0 -32 27 -1
32 30 4 30 42 0 46 -13 2 -23 12 -25 24 -3 22 -19 33 -31 22z m101 -291 c-3
-16 -15 -18 -88 -18 -73 0 -85 2 -88 18 -3 15 6 17 88 17 82 0 91 -2 88 -17z
m0 -95 l3 -28 -90 0 -91 0 0 30 0 31 88 -3 c87 -3 87 -3 90 -30z m90 -100 c-3
-23 -5 -23 -180 -26 l-178 -2 0 25 0 25 181 0 180 0 -3 -22z m337 -83 c14 -13
25 -29 25 -35 0 -6 -36 -10 -95 -10 -52 0 -95 3 -95 7 0 4 12 20 27 35 36 38
102 40 138 3z m-335 -15 l0 -30 -127 0 c-122 0 -128 -1 -180 -30 l-53 -30 0
60 0 60 180 0 180 0 0 -30z m-545 -112 l29 -33 -52 -3 c-29 -2 -75 -2 -103 0
l-51 3 22 28 c45 56 106 58 155 5z m955 21 c0 -6 -19 -46 -42 -90 l-43 -79
-531 0 -531 0 -11 25 c-7 14 -12 28 -12 30 0 3 69 5 154 5 l154 0 99 59 98 59
333 1 c232 1 332 -2 332 -10z"/>
<path d="M3303 2194 c-3 -8 -1 -20 4 -25 5 -5 95 -8 219 -7 208 3 209 3 212
26 l3 22 -216 0 c-187 0 -216 -2 -222 -16z"/>
<path d="M1146 3559 c-49 -39 -22 -119 42 -119 33 0 45 8 61 37 17 33 14 51
-14 78 -30 30 -54 31 -89 4z m59 -50 c0 -7 -8 -15 -17 -17 -18 -3 -25 18 -11
32 10 10 28 1 28 -15z"/>
<path d="M4212 1218 c3 -20 10 -23 48 -26 52 -3 76 9 67 32 -5 12 -20 16 -62
16 -53 0 -56 -1 -53 -22z"/>
<path d="M1840 5891 c0 -10 11 -26 25 -35 33 -21 32 -27 -10 -54 l-35 -22 -39
26 c-39 26 -61 25 -61 0 0 -8 11 -21 25 -30 33 -22 32 -30 -9 -56 l-35 -21
-40 26 c-61 41 -89 9 -30 -34 l30 -22 -70 -50 c-68 -47 -72 -49 -95 -34 -19
13 -32 14 -71 5 -45 -10 -49 -9 -106 26 -77 46 -162 76 -210 73 -26 -2 -48 4
-75 22 -22 14 -45 24 -51 22 -24 -8 -13 -33 27 -59 22 -15 40 -34 40 -43 0
-40 99 -158 179 -213 16 -11 26 -32 32 -65 6 -30 17 -54 31 -64 l21 -16 -21
-78 c-12 -43 -23 -80 -26 -82 -3 -3 -19 5 -35 17 -31 21 -51 20 -51 -4 0 -7
17 -25 39 -40 38 -27 39 -27 28 -69 -5 -23 -11 -44 -13 -46 -2 -2 -16 6 -32
18 -36 25 -48 26 -56 6 -4 -10 8 -25 34 -43 44 -30 44 -32 29 -85 l-10 -38
-34 21 c-35 21 -55 20 -55 -4 0 -13 238 -181 246 -173 2 2 62 86 132 187 70
101 132 185 138 187 5 2 17 -2 27 -9 16 -12 15 -24 -8 -188 -31 -219 -31 -224
0 -244 80 -52 62 -61 159 78 80 116 86 127 86 174 0 47 2 52 36 73 l36 22 38
-22 c47 -26 61 -26 94 0 40 31 36 79 -10 117 -32 27 -35 33 -29 65 8 42 16 50
66 66 29 9 50 32 124 138 l88 126 -24 18 c-13 10 -37 25 -54 34 -30 16 -30 16
-199 -75 -129 -69 -176 -90 -194 -85 -17 4 -23 11 -19 24 2 9 62 99 132 200
72 103 124 186 119 191 -26 24 -230 160 -241 160 -7 0 -13 -8 -13 -19z m129
-108 c20 -18 18 -20 -163 -143 -101 -68 -188 -126 -193 -127 -6 -2 -20 4 -32
14 -22 18 -21 18 161 145 101 70 188 127 194 127 7 1 21 -7 33 -16z m71 -49
c0 -5 -223 -328 -239 -346 -9 -10 -143 81 -139 94 4 11 357 256 371 257 4 1 7
-2 7 -5z m-853 -104 c140 -49 333 -208 333 -274 0 -28 -58 -15 -155 33 -129
64 -265 189 -265 243 0 23 17 23 87 -2z m555 -269 c269 -185 291 -205 269
-240 -7 -11 -30 0 -109 54 -90 61 -105 67 -136 62 -32 -5 -46 1 -114 48 -66
45 -80 60 -91 94 -7 25 -34 64 -71 103 -33 34 -60 64 -60 65 0 2 9 3 20 3 11
0 142 -85 292 -189z m512 84 c18 -13 18 -15 -4 -44 -23 -33 -29 -32 -75 5 -12
10 -15 18 -9 21 6 2 20 10 30 18 24 18 34 18 58 0z m-74 -95 l23 -17 -31 -45
c-36 -52 -47 -62 -88 -76 -29 -9 -38 -6 -99 35 -37 24 -64 47 -61 51 4 3 46
27 94 52 95 51 94 51 162 0z m-785 -24 c36 -15 80 -26 108 -26 41 0 59 -7 123
-51 41 -28 77 -56 79 -62 2 -7 6 -24 9 -38 4 -19 32 -45 106 -95 99 -68 100
-69 79 -86 -12 -10 -26 -18 -33 -17 -22 1 -551 377 -555 394 -2 12 1 16 10 12
8 -3 41 -17 74 -31z m-11 -101 c18 -14 17 -21 -34 -227 -29 -117 -57 -217 -61
-223 -6 -6 -17 -2 -30 11 l-20 21 41 164 c53 211 70 269 78 269 4 0 15 -7 26
-15z m557 -131 c98 -67 139 -101 137 -112 -7 -35 -54 -16 -185 73 -73 50 -135
96 -138 104 -7 18 15 43 32 36 8 -3 78 -48 154 -101z m-425 40 c35 -25 64 -50
64 -56 0 -7 -210 -316 -236 -347 -20 -24 10 120 87 412 5 20 12 37 15 37 3 0
34 -21 70 -46z m272 -189 c56 -41 62 -49 62 -80 0 -24 -12 -53 -36 -90 l-37
-55 -26 16 c-74 44 -73 41 -61 129 15 106 19 125 28 125 4 0 36 -20 70 -45z
m-77 -236 c34 -24 35 -35 11 -67 -18 -23 -19 -23 -39 -5 -16 14 -20 26 -16 56
3 20 7 37 10 37 3 0 18 -9 34 -21z"/>
<path d="M4487 5642 c-20 -21 -37 -44 -37 -52 0 -8 88 -109 195 -224 107 -115
195 -211 195 -215 0 -3 -19 -28 -41 -54 l-42 -48 -46 45 c-53 52 -86 59 -119
23 -31 -33 -28 -50 23 -115 32 -40 45 -66 45 -89 0 -42 -16 -50 -45 -23 -25
23 -55 21 -55 -3 0 -8 9 -22 20 -32 14 -12 18 -25 14 -41 -6 -24 0 -28 37 -25
9 1 22 -5 29 -14 14 -17 46 -20 55 -4 4 6 -3 21 -15 34 -26 27 -21 41 17 48
22 4 42 -5 94 -44 37 -27 71 -49 76 -49 16 0 63 55 63 75 0 11 -21 41 -47 67
l-47 48 25 26 c13 14 36 35 51 45 l27 20 216 -196 c118 -107 221 -195 229
-195 19 0 86 76 86 97 0 10 -93 111 -206 224 l-206 206 76 48 c124 77 171 147
164 245 l-3 45 -52 3 c-39 2 -63 -3 -101 -22 -57 -29 -87 -62 -140 -152 -20
-35 -40 -64 -43 -64 -3 0 -98 90 -212 200 -120 117 -213 200 -224 200 -10 0
-36 -17 -56 -38z m278 -225 c180 -174 218 -207 231 -196 8 6 37 49 65 95 27
46 66 97 86 113 37 31 112 56 126 42 15 -15 -13 -91 -48 -130 -19 -21 -73 -62
-120 -90 -53 -33 -85 -59 -85 -70 0 -9 95 -111 210 -226 208 -207 210 -209
191 -229 -23 -23 6 -45 -274 208 -98 89 -182 162 -187 164 -4 2 -60 -42 -123
-97 -64 -56 -118 -101 -121 -101 -19 0 4 34 89 132 52 60 95 114 95 121 0 7
-88 106 -195 221 -107 115 -195 214 -195 220 0 15 21 37 32 34 4 -2 105 -97
223 -211z m-80 -367 c35 -36 38 -42 24 -56 -14 -13 -19 -10 -52 32 -33 42 -39
64 -18 64 4 0 25 -18 46 -40z m180 -170 c29 -30 36 -43 28 -51 -8 -8 -23 -3
-57 21 -50 36 -52 40 -34 58 17 17 20 16 63 -28z"/>
</g>
</svg>
